<?xml version="1.0" encoding="utf-8"?>
<!-- Generator: Adobe Illustrator 20.1.0, SVG Export Plug-In . SVG Version: 6.00 Build 0)  -->
<svg version="1.1" xmlns="http://www.w3.org/2000/svg" xmlns:xlink="http://www.w3.org/1999/xlink" x="0px" y="0px" width="792px"
	 height="612px" viewBox="0 0 792 612" style="enable-background:new 0 0 792 612;" xml:space="preserve">
<style type="text/css">
	.st0{fill:#FFFFFF;}
	.st1{fill:#004C59;}
	.st2{fill:#004C59;stroke:#004C59;stroke-miterlimit:10;}
	.st3{fill:#00725C;}
	.st4{fill:#1E454C;stroke:#1E454C;stroke-width:0.75;stroke-miterlimit:10;}
</style>
<g id="Layer_1">
</g>
<g id="Layer_2">
</g>
<g id="Layer_3">
	<path class="st4" d="M258.6,244.5c0,0-49.5-15.9-33.5-31.7s41-90.5,15.1-108.9c0,0-2.4,56.3-38.2,72.8S177,107.9,185,110.5
		c8,2.6,17.1-35.5,17.1-35.5s-4.9,13.1-25.1,27.6s-42.6,60.8-23.3,85.5c0,0,27,49.7,5.9,39.2s-21-87.9-44.2-89.2
		c0,0-11.4,59.9,23.1,100.8s15.2,45.6,15.2,45.6s-40.7-16.5-40.2-42.8c0,0-18.9,42.7,24.9,56.8l9.1,7.5L258.6,244.5z"/>
	<path class="st4" d="M533.4,244.5c0,0,49.5-15.9,33.5-31.7s-41-90.5-15.1-108.9c0,0,2.4,56.3,38.2,72.8s25.1-68.8,17.1-66.2
		c-8,2.6-17.1-35.5-17.1-35.5s4.9,13.1,25.1,27.6c20.1,14.4,42.6,60.8,23.3,85.5c0,0-27,49.7-5.9,39.2c21.1-10.5,21-87.9,44.2-89.2
		c0,0,11.4,59.9-23.1,100.8s-15.2,45.6-15.2,45.6s40.7-16.5,40.2-42.8c0,0,18.9,42.7-24.9,56.8l-9.1,7.5L533.4,244.5z"/>
</g>
<g id="Layer_4">
</g>
</svg>
