<?xml version="1.0" encoding="utf-8"?>
<!-- Generator: Adobe Illustrator 20.1.0, SVG Export Plug-In . SVG Version: 6.00 Build 0)  -->
<svg version="1.1" xmlns="http://www.w3.org/2000/svg" xmlns:xlink="http://www.w3.org/1999/xlink" x="0px" y="0px" width="792px"
	 height="861px" viewBox="0 0 792 861" style="enable-background:new 0 0 792 861;" xml:space="preserve">
<style type="text/css">
	.st0{fill:#FFFFFF;}
	.st1{fill:#004C59;}
	.st2{fill:#004C59;stroke:#004C59;stroke-miterlimit:10;}
	.st3{fill:#00725C;}
</style>
<g id="Layer_1">
</g>
<g id="Layer_2">
</g>
<g id="Layer_3">
</g>
<g id="Layer_4">
	<g>
		<g>
			<path class="st1" d="M665.2,3.3c-0.4,36.9-21.9,68.5-45.4,95.1c-22.7,25.8-46.9,49.6-65.1,79c-32.6,52.6-48.9,118.5-21.4,176.8
				c25.1,53.2,76.1,89.2,99.7,143.2c14.5,33.2,14.8,70.9,10.7,106.3c-4,34.9-15.3,68-38.6,94.8c-21.3,24.6-48.5,43.8-67.6,70.3
				c-9.1,12.6-16.2,27.6-16.2,43.4c0,12.7,5.3,25.9,15,34.4c4.7,4.1,10.1,6.8,16.2,7.9c3.1,0.6,4.5-4.2,1.3-4.8
				c-14.4-2.7-23.8-15.5-26.7-29.3c-3.4-16.6,4-33.5,13.3-46.9c18.6-27,46.3-46.2,67.7-70.8c21.8-24.9,33.8-54.7,39-87.2
				c5.3-33.8,6.5-70.4-3.4-103.4c-16.8-56.3-65.9-93.4-95.9-142c-16.3-26.4-24.9-56-23.5-87.1c1.5-32.3,12.6-63.7,28.2-91.8
				c16.6-29.8,38.9-54.3,61.8-79.2c22.7-24.7,45.1-51.9,53.1-85.3c1.9-7.7,2.8-15.6,2.9-23.5C670.2,0,665.2,0,665.2,3.3L665.2,3.3z"
				/>
		</g>
	</g>
	<g>
		<g>
			<path class="st1" d="M491.1,4.8c-11.1,12.3-7.2,30.1-1.9,44.2c5.5,14.5,13.2,28.1,22.4,40.5c19.1,26,43.5,47.4,66.8,69.5
				c23.5,22.2,46.8,45.6,62,74.5c19.4,36.8,23.2,80.5,14.9,120.9c-8.2,39.7-27.7,76.5-53.1,107.9c-25.3,31.3-56.6,56.8-84,86
				c-25.6,27.3-47.3,58.3-55.6,95.3c-7.7,34.2-2.4,70.8,22.2,97c11.8,12.5,26.7,21.8,42.7,28c19.2,7.5,39.8,9.6,60.2,11.8
				c37.3,4,86.1,12.6,96.9,55.3c2.2,8.7,2,17.7-1,26.2c-1.1,3,3.8,4.3,4.8,1.3c5.6-15.9,1.9-33.3-7-47.2
				c-9.6-14.9-24.9-24.6-41.3-30.6c-38.8-14-82.1-7.2-119.7-25.4c-16.2-7.8-30.9-19.3-41-34.3c-10.2-15.3-15-33.4-15.2-51.7
				c-0.3-38,17.1-74,40.6-103c25.3-31.2,56.6-56.7,84.1-86c26.7-28.5,49-61.4,62.4-98.3c13.4-36.9,17.3-77.5,8.3-115.9
				c-7.8-33.7-26.3-62.4-49.5-87.6c-22-23.9-47.1-44.7-69.7-68.1c-21.7-22.4-44.2-50-50.5-81.4c-1.8-8.8-1.6-18.7,4.8-25.7
				C496.8,5.9,493.3,2.4,491.1,4.8L491.1,4.8z"/>
		</g>
	</g>
	<g>
		<g>
			<path class="st1" d="M582.6,6.1c24.1,17.3,21.4,52.5,13.8,77.6c-10.2,33.5-29.2,64.3-48,93.5c-37.6,58.3-82.6,119.7-82.9,192.2
				c-0.3,66.3,43.2,120,90.5,161.7c26.1,23.1,55,43.4,77.6,70.3c22.1,26.4,36.2,59,42.2,92.8c5.5,30.7,4.6,62.8-5,92.6
				c-8.5,26.4-24.2,52-48.4,66.8c-5.9,3.6-12.2,6.4-18.8,8.6c-3.1,1-1.7,5.8,1.3,4.8c55.8-17.9,79.5-82,79.2-135.9
				c-0.2-34.1-8.1-68.3-23.9-98.6c-16.5-31.8-42.2-56-69.5-78.7c-50.7-42.1-106.2-89.7-118.1-158.3
				c-13.2-76.1,33.9-145.1,73.3-205.5c19.8-30.2,39.2-61.1,51.9-95.1c9.1-24.4,14.9-56.4,0.1-79.9c-3.3-5.3-7.7-9.7-12.7-13.3
				C582.5-0.1,580,4.2,582.6,6.1L582.6,6.1z"/>
		</g>
	</g>
	<g>
		<g>
			<path class="st1" d="M527.6,7.9c-19.8,30-18.1,69-5.8,101.5c13.8,36.5,40.4,66.3,64.8,96c24.8,30.2,49.5,63.5,56.3,102.9
				c6.8,39.1-6.9,78.5-28.3,110.9c-22.3,33.9-53.5,60.4-84.8,85.7c-30.1,24.3-61.8,47.8-86.3,78c-22.4,27.6-37.4,61.1-33.7,97.3
				c3.6,35,22,67.8,48.4,90.7c28.3,24.5,64.5,38.3,101.2,43.7c34.8,5.1,78,5.9,102.4-24.3c4.9-6.1,8.4-13,10.4-20.5
				c0.8-3.1-4-4.4-4.8-1.3c-4.5,17.1-18.1,30.2-34.1,36.9c-18.6,7.8-39.5,7.8-59.2,6c-36.9-3.4-73.9-14.8-103.8-37.2
				c-28.6-21.4-49.6-53.7-54.8-89.3c-5.4-37,9.5-71.5,32.6-99.7c23.8-29,54.2-51.7,83.2-75.1c29.7-24,59.4-48.9,81.9-80.1
				c20.8-28.8,35.9-63.3,36.4-99.3c0.5-37.6-16.7-71.7-38.2-101.5c-22.2-30.8-49.4-57.9-69.3-90.3c-18.9-30.8-31-68.7-21.1-104.6
				c2.4-8.5,6-16.5,10.9-23.9C533.7,7.7,529.4,5.2,527.6,7.9L527.6,7.9z"/>
		</g>
	</g>
	<g>
		<g>
			<path class="st1" d="M428.3,4.7c-19.3,30-15.5,69,0,99.7c17.3,34.1,49,58.3,80.3,78.9c33.1,21.9,68.6,41.5,95.4,71.4
				c24.3,27.1,37.9,62.1,40.2,98.3c2.3,35.5-5.9,71.7-24.6,102.1c-21.2,34.3-52.9,60.1-82.4,87c-27.3,24.9-54.1,52.5-68.7,87
				c-13.9,33-13.3,69.6-0.4,102.8c12.9,33,36.4,60.8,66.3,79.7c31.7,20,69,29.9,106.1,31.9c9.2,0.5,18.5,0.5,27.7,0.1
				c3.2-0.1,3.2-5.2,0-5c-73.9,3.5-152.9-24.3-188.7-93.3c-16.5-31.8-21.7-69.2-10.5-103.5c11.7-36.1,38.3-65,65.5-90.4
				c27.9-26,58.1-50,80.7-81c20.4-27.9,32.1-61,33.9-95.5c1.8-33.4-5.5-67.6-22.2-96.6C608.5,246,578.6,223.1,548,203
				c-32.4-21.3-67-40.7-93.4-69.7c-24.5-26.9-40.9-64.7-32.4-101.5c2-8.7,5.5-16.9,10.3-24.4C434.3,4.6,430,2,428.3,4.7L428.3,4.7z"
				/>
		</g>
	</g>
	<g>
		<g>
			<path class="st1" d="M633.2,4.9c52.7,42.1,63.9,117.1,45.2,178.9c-10.5,34.6-29.2,66.3-51.6,94.4c-23.5,29.4-52.2,53.8-76.9,82
				c-45.8,52.4-68,125.1-60.4,194.3c3.4,31.2,13.1,62.1,31.3,87.9c18.1,25.7,43.9,42.2,69.3,59.7c24.9,17.2,50.6,37.8,57.4,68.9
				c6.2,28.6-3.9,60.5-25.1,80.5c-5.2,5-11.1,9-17.6,12.3c-2.9,1.5-0.3,5.8,2.5,4.3c25.4-12.9,42-39.2,45.9-67.1
				c4.2-29.8-7.2-57-28.4-77.7c-22.7-22.2-51.8-36.2-75.7-56.9c-25.3-21.9-41.6-51.6-49.7-83.8c-8.1-32.7-8.2-67.3-2.1-100.3
				c7-37.8,21.6-74.5,45.1-105.1c23.5-30.7,53.9-55.3,79-84.5c23.2-27,43-57.1,56-90.4C700.7,142,697.8,68.3,654,17.8
				c-5.2-6-11-11.5-17.2-16.5C634.3-0.6,630.7,2.9,633.2,4.9L633.2,4.9z"/>
		</g>
	</g>
</g>
</svg>
